PathFileType	4	(X/Y/Z)	D:\TRACE\spotREDO_2-26-24\spot_justArm_Motion_3_3-v60.trc
DataRate	CameraRate	NumFrames	NumMarkers	Units	OrigDataRate	OrigDataStartFrame	OrigNumFrames
100.00	100.00	      21	9	mm	100.00	4146	      6633
Frame#	Time	front left toe			Front right toe			aft left toe			aft right toe			Arm			FL body			FR body			AL Body			AR Body			
		X1	Y1	Z1	X2	Y2	Z2	X3	Y3	Z3	X4	Y4	Z4	X5	Y5	Z5	X6	Y6	Z6	X7	Y7	Z7	X8	Y8	Z8	X9	Y9	Z9	

4146	41.450	-191.42274	38.83549	-270.59747	301.88022	37.23714	-241.20836	-225.97919	5.82751	346.27844	262.26288	6.10843	376.25723	-47.81796	770.63068	-744.95624	-0.59794	569.81012	-321.42139	154.66144	573.83368	-314.84540	-45.25761	534.59296	560.64691	102.30263	534.45044	568.69391	
4147	41.460	-191.45541	38.67870	-270.65457	302.00583	37.12020	-241.14758	-225.96954	5.91114	346.24377	262.32632	6.33424	376.23639	-47.96530	771.92926	-744.18475	-0.35000	569.31671	-321.63083	154.79587	573.49707	-314.90802	-45.52982	534.68573	560.52258	101.95741	534.70013	568.60962	
4148	41.470	-191.46954	38.56692	-270.72195	302.06635	37.02361	-241.16409	-226.12201	5.90978	346.10526	262.20508	6.43053	376.30621	-48.25286	773.73370	-743.29053	-0.18082	569.13568	-321.83530	154.96045	573.30750	-314.93515	-46.09174	534.64471	560.33698	101.41347	534.65173	568.57275	
4149	41.480	-191.38260	38.50133	-270.83020	302.05444	36.95197	-241.15575	-226.29497	5.91992	345.92804	262.22092	6.52658	376.34973	-49.17940	775.24811	-742.34625	0.03472	569.20435	-321.94315	155.26662	573.38995	-314.86340	-46.54070	534.53851	560.21204	101.07867	534.55908	568.47174	
4150	41.490	-191.37903	38.61135	-270.95026	301.89456	36.39627	-241.55620	-226.45015	6.02187	345.89255	262.14426	6.54212	376.31781	-50.30588	777.33118	-741.59863	0.39080	569.44653	-321.99686	155.69377	573.63629	-314.67792	-46.95922	534.28802	560.09760	100.91242	534.45123	568.77740	
4151	41.500	-191.35043	38.74725	-271.04834	302.03726	36.78412	-241.22501	-226.47961	6.11798	345.81006	262.09650	6.67224	376.31848	-51.37588	779.29858	-740.70966	0.65632	569.64587	-322.15729	155.89767	574.06476	-314.65277	-47.38091	534.03339	559.92151	100.57649	534.24829	568.75848	
4152	41.510	-191.37202	38.78499	-271.16861	302.03342	36.75179	-241.28723	-226.49792	6.19961	345.78040	261.99356	6.74907	376.24323	-52.40153	780.90198	-739.87653	0.84409	570.13544	-322.30774	156.11302	574.36542	-314.61960	-47.51567	533.87573	559.89600	100.15398	534.04199	568.35834	
4153	41.520	-191.30659	38.66639	-271.35413	302.01962	36.70057	-241.31717	-226.46275	6.25378	345.74075	261.91431	6.87335	376.14313	-53.40091	782.11932	-739.33472	0.92910	570.60352	-322.32666	156.29810	574.77625	-314.59097	-47.54230	533.62457	559.86041	100.16091	533.83276	568.33209	
4154	41.530	-191.32150	38.45701	-271.43665	301.99850	36.76226	-241.39034	-226.48352	6.34988	345.76523	261.89288	6.88776	376.09842	-54.84557	783.34668	-739.26819	0.76803	570.92493	-322.14029	156.29419	575.25287	-314.55344	-47.44035	533.29565	559.89221	100.20267	533.69867	568.34076	
4155	41.540	-191.43661	38.23485	-271.50092	301.99463	36.66089	-241.49907	-226.39554	6.47712	345.75433	261.89502	6.90549	376.05087	-55.30671	783.92963	-739.24609	0.61591	571.40271	-321.91287	156.06664	575.75702	-314.55197	-47.24918	533.05328	559.97217	100.42331	533.62921	568.26355	
4156	41.550	-191.58224	38.13535	-271.54678	302.04660	36.60052	-241.65976	-226.36790	6.62490	345.84250	262.00662	6.93472	376.03625	-55.79919	784.46021	-739.09558	0.45949	571.63019	-321.74759	155.73320	576.26447	-314.55859	-46.98267	532.89960	560.06946	100.74278	533.37146	568.42072	
4157	41.560	-191.68224	38.04556	-271.56030	302.01749	36.61370	-241.80417	-226.24055	6.83439	345.94504	261.98065	6.94103	375.99133	-55.93120	784.77155	-739.07477	0.07621	571.95630	-321.64304	155.21019	576.73981	-314.71066	-46.69168	532.78845	560.17950	101.18438	533.24469	568.41479	
4158	41.570	-191.64090	37.97515	-271.53125	302.02505	36.56141	-241.90878	-226.17883	7.03171	345.96890	262.03818	6.99287	375.93628	-55.78960	784.77094	-739.14075	-0.31629	572.20782	-321.60144	154.74501	577.05713	-314.83636	-46.27060	532.73962	560.27423	101.67094	533.23383	568.42108	
4159	41.580	-191.55240	37.76541	-271.45856	302.10556	36.57880	-242.03786	-226.01152	7.31416	345.92166	262.33173	7.13400	375.93045	-55.27443	784.56311	-739.45758	-0.77465	572.26843	-321.47668	154.44518	577.26746	-314.85413	-45.80042	532.78314	560.43683	102.00051	533.34845	568.40808	
4160	41.590	-191.51501	37.60655	-271.42477	302.25912	36.07468	-242.43970	-225.85345	7.38739	345.94839	262.76840	7.36794	375.95901	-54.84084	784.08276	-739.46130	-1.17372	572.42767	-321.42804	154.23303	577.35852	-314.87073	-45.45848	532.83673	560.52332	102.45688	533.44147	568.78436	
4161	41.600	-191.35515	37.39941	-271.38934	302.55139	36.56693	-242.16074	-225.68129	7.46306	345.93613	263.03223	7.49518	375.97134	-54.24724	783.87311	-739.83264	-1.39203	572.44257	-321.39841	153.98409	577.49957	-315.03168	-45.35981	532.91852	560.55194	102.57206	533.58704	568.75537	
4162	41.610	-191.19693	37.32535	-271.52490	302.71420	36.08723	-242.63034	-225.49547	7.52233	345.90820	263.19968	7.70160	375.98395	-53.60568	783.39038	-740.27612	-1.56014	572.47711	-321.37201	153.84453	577.51935	-314.95779	-45.40588	532.96173	560.56604	102.76792	533.76819	568.94000	
4163	41.620	-191.09494	37.24677	-271.64182	302.76318	36.01505	-242.70677	-225.46471	7.68033	345.85284	263.41034	7.97214	375.94217	-52.75232	783.03577	-740.45514	-1.57397	572.44342	-321.39252	153.80455	577.57837	-315.11823	-45.66631	533.05298	560.48572	102.44621	533.93152	568.89673	
4164	41.630	-190.93257	37.12064	-271.77679	302.86218	35.91491	-242.76234	-225.50156	7.83733	345.79218	263.39185	8.19069	375.85904	-51.98321	782.57367	-740.69061	-1.49416	572.38153	-321.53033	153.85394	577.53290	-314.99512	-46.12281	533.02911	560.32538	101.89231	534.05536	568.66309	
4165	41.640	-190.77567	37.11843	-271.86295	302.91718	35.84570	-242.74287	-225.51308	7.88116	345.71838	263.55884	8.36347	375.85364	-51.19201	782.09827	-740.94208	-1.19479	572.25867	-321.61679	153.99036	577.49231	-314.99216	-46.67104	533.04486	560.24268	101.60153	534.14954	568.60022	
4166	41.650	-190.59865	36.93911	-271.94724	302.91861	35.68392	-242.80252	-225.49690	7.86441	345.68283	263.39133	8.47579	375.82361	-50.58575	781.77637	-741.07385	-0.95471	572.12714	-321.77026	154.21490	577.42303	-314.98471	-46.96582	533.10950	560.12378	100.86735	534.23157	568.27368	
